<svg width="209" height="208" viewBox="0 0 209 208" fill="none" xmlns="http://www.w3.org/2000/svg">
<path d="M123.322 0.848029C107.877 0.29349 87.7695 3.03538 85.1303 21.674C84.5038 26.059 84.1033 29.8073 80.9096 33.2269C78.1883 36.1331 74.019 37.3038 71.7803 40.6618C70.7739 42.1714 70.014 43.8761 69.3156 45.5397C67.3645 50.1814 66.0398 55.1825 65.7214 60.2145C64.8383 73.9753 73.6493 82.3139 87.0814 83.4229C92.6679 83.8851 98.4597 83.4435 103.964 82.4371L133.016 77.1074C133.016 77.1074 136.887 91.8745 160.609 80.4962C184.331 69.1179 165.692 51.9375 165.692 51.9375C165.692 51.9375 145.842 37.8994 147.054 28.2155C148.255 18.5214 143.418 1.57714 123.322 0.848029Z" fill="#F9A136"/>
<path d="M87.6463 74.0475C80.6735 74.0475 74.9946 68.3686 74.9946 61.3958C74.9946 54.423 80.6735 48.7441 87.6463 48.7441C94.6191 48.7441 100.298 54.423 100.298 61.3958C100.298 68.3686 94.6293 74.0475 87.6463 74.0475ZM87.6463 50.2845C81.5155 50.2845 76.535 55.2651 76.535 61.3958C76.535 67.5266 81.5155 72.5071 87.6463 72.5071C93.777 72.5071 98.7576 67.5266 98.7576 61.3958C98.7576 55.2651 93.777 50.2845 87.6463 50.2845Z" fill="white"/>
<path d="M113.884 12.956C113.812 12.956 113.751 12.9458 113.679 12.915C113.422 12.802 113.299 12.5042 113.412 12.2372C113.556 11.8983 116.985 3.93965 121.401 2.67653C121.679 2.59438 121.956 2.75869 122.038 3.02569C122.12 3.30295 121.956 3.58022 121.689 3.66238C117.745 4.79199 114.398 12.5555 114.367 12.6377C114.274 12.8431 114.09 12.956 113.884 12.956Z" fill="#934C22"/>
<path d="M153.944 82.4577C153.862 82.4577 153.78 82.4372 153.708 82.3961C153.462 82.2626 153.359 81.9545 153.493 81.6978C156.974 75.0947 157.795 68.8921 155.947 63.2543C152.918 54.012 143.644 49.4113 143.542 49.36C143.285 49.2368 143.182 48.9287 143.306 48.672C143.429 48.4152 143.737 48.3125 143.994 48.4358C144.394 48.6309 153.76 53.2726 156.923 62.9359C158.863 68.851 158.011 75.3206 154.396 82.1805C154.304 82.355 154.129 82.4577 153.944 82.4577Z" fill="#934C22"/>
<path d="M69.1411 65.4109C68.8947 65.4109 68.679 65.1952 68.679 64.9179C68.5352 56.8566 76.9663 45.622 77.3257 45.1497C77.49 44.934 77.7775 44.9032 77.9727 45.0778C78.1678 45.2523 78.1986 45.5707 78.0343 45.7863C77.9521 45.8993 69.4595 57.2057 69.6032 64.9077C69.6032 65.1747 69.4081 65.4109 69.1411 65.4109Z" fill="#934C22"/>
<path d="M127.984 55.5524C127.984 55.5524 115.291 77.3026 135.634 87.9826L136.446 94.0209L109.448 126.051L97.3712 124.233L92.5344 91.2072C92.5344 91.2072 104.395 93.5177 104.673 80.2191C104.714 78.309 104.519 76.0806 104.015 73.4825C104.077 73.7803 96.601 70.9665 96.0875 70.6174C89.6795 66.1605 87.3792 58.0786 86.8658 50.6642C86.2702 42.1202 88.0057 27.3633 97.3712 23.3275C104.416 20.2981 110.259 23.728 112.672 15.8721C112.672 15.8721 120.929 38.2282 131.814 40.6415C131.814 40.6415 140.071 38.6287 140.872 44.0714C141.683 49.5038 139.259 55.1519 127.984 55.5524Z" fill="#C5503B"/>
<path d="M113.884 69.0459C113.319 74.3448 107.928 78.2985 104.673 80.2188C104.714 78.3087 104.519 76.0803 104.015 73.4822C112.272 72.4656 113.884 69.0459 113.884 69.0459Z" fill="#833823"/>
<path d="M97.0118 90.2519C97.0118 90.2519 94.3521 137.244 110.382 119.642C126.413 102.041 136.589 87.0273 136.589 87.0273C136.589 87.0273 147.465 89.6152 151.952 89.6152C156.44 89.6152 172.83 94.2774 178.354 112.742C183.879 131.206 188.367 140.694 193.019 145.007C197.681 149.321 225.808 184.185 193.019 203.337L148.327 185.386C148.327 185.386 149.015 200.574 136.589 203.337C124.164 206.099 72.0473 203.337 72.0473 203.337C72.304 198.798 72.4067 194.248 72.417 189.709C72.4273 184.082 72.4683 178.228 71.503 172.58C71.0409 169.89 70.5377 167.076 69.1308 164.704C67.0359 161.161 63.4828 158.44 61.9013 154.609C61.6651 154.034 60.5252 150.604 61.1722 150.183C61.1722 150.183 32.5313 168.647 22.8577 167.61C13.1943 166.573 2.31922 162.26 1.11772 146.558C-0.0837835 130.856 29.7689 123.267 29.7689 123.267C29.7689 123.267 44.0944 115.679 54.2713 101.353C64.4481 87.0273 97.0118 90.2519 97.0118 90.2519Z" fill="#F9C1C6"/>
<path d="M61.1722 150.697C60.9052 150.697 60.6793 150.491 60.6587 150.224C59.6421 136.145 64.2119 125.927 68.2374 119.827C72.6018 113.214 77.1408 109.99 77.3257 109.846C77.5619 109.681 77.8802 109.743 78.0445 109.969C78.2088 110.205 78.1472 110.524 77.9213 110.688C77.7365 110.811 59.7756 123.791 61.6856 150.142C61.7062 150.43 61.4905 150.666 61.2133 150.686C61.1927 150.697 61.1825 150.697 61.1722 150.697Z" fill="#D6919A"/>
<path d="M151.644 164.633C151.387 164.633 151.161 164.427 151.131 164.171C151.12 164.088 150.36 155.842 148.348 148.079C146.325 140.264 142.823 122.786 142.792 122.611C142.741 122.334 142.915 122.067 143.193 122.005C143.47 121.954 143.737 122.128 143.798 122.406C143.829 122.58 147.321 140.028 149.344 147.812C151.377 155.657 152.147 163.986 152.158 164.068C152.178 164.355 151.973 164.602 151.695 164.622C151.675 164.633 151.654 164.633 151.644 164.633Z" fill="#D6919A"/>
<path d="M140.274 99.2656L139.439 99.8623L146.224 109.364L147.059 108.768L140.274 99.2656Z" fill="#D6919A"/>
<path d="M137.842 109.881L129.945 116.717L130.617 117.493L138.514 110.658L137.842 109.881Z" fill="#D6919A"/>
<path d="M117.23 118.997L116.396 119.595L122.683 128.367L123.517 127.769L117.23 118.997Z" fill="#D6919A"/>
<path d="M109.167 135.882L101.273 142.938L101.957 143.703L109.851 136.648L109.167 135.882Z" fill="#D6919A"/>
<path d="M91.5081 120.598L90.6744 121.197L96.6706 129.534L97.5043 128.934L91.5081 120.598Z" fill="#D6919A"/>
<path d="M86.0668 106.923L77.285 114.972L77.9789 115.729L86.7607 107.68L86.0668 106.923Z" fill="#D6919A"/>
<path d="M55.3594 110.96L47.0262 118.933L47.7361 119.675L56.0694 111.702L55.3594 110.96Z" fill="#D6919A"/>
<path d="M64.6009 99.2445L63.7844 99.8672L70.3604 108.49L71.1769 107.867L64.6009 99.2445Z" fill="#D6919A"/>
<path d="M87.1555 91.8442L79.1098 98.126L79.7418 98.9354L87.7874 92.6536L87.1555 91.8442Z" fill="#D6919A"/>
<path d="M59.3248 121.148L58.553 121.825L63.8177 127.822L64.5894 127.144L59.3248 121.148Z" fill="#D6919A"/>
<path d="M36.5478 128.858L27.6452 137.063L28.3411 137.819L37.2437 129.613L36.5478 128.858Z" fill="#D6919A"/>
<path d="M42.3733 127.176L41.5448 127.782L47.9698 136.556L48.7983 135.95L42.3733 127.176Z" fill="#D6919A"/>
<path d="M12.4391 153.147L7.00116 158.831L7.74321 159.541L13.1811 153.857L12.4391 153.147Z" fill="#D6919A"/>
<path d="M23.2214 144.406L22.4168 145.044L26.7433 150.499L27.5479 149.861L23.2214 144.406Z" fill="#D6919A"/>
<path d="M32.1042 154.851L24.6239 161.397L25.3002 162.17L32.7806 155.623L32.1042 154.851Z" fill="#D6919A"/>
<path d="M35.188 144.401L34.3995 145.059L40.525 152.399L41.3135 151.741L35.188 144.401Z" fill="#D6919A"/>
<path d="M54.4971 145.381L46.588 151.654L47.2261 152.459L55.1352 146.186L54.4971 145.381Z" fill="#D6919A"/>
<path d="M79.5228 135.838L70.4608 142.904L71.0923 143.714L80.1543 136.648L79.5228 135.838Z" fill="#D6919A"/>
<path d="M86.232 144.424L85.3979 145.023L91.7005 153.798L92.5346 153.199L86.232 144.424Z" fill="#D6919A"/>
<path d="M74.0266 161.477L70.0172 167.056L70.8511 167.655L74.8605 162.076L74.0266 161.477Z" fill="#D6919A"/>
<path d="M82.4175 171.324L81.6339 171.988L88.5773 180.184L89.3608 179.52L82.4175 171.324Z" fill="#D6919A"/>
<path d="M77.2346 188.016L72.052 194.191L72.8386 194.852L78.0213 188.677L77.2346 188.016Z" fill="#D6919A"/>
<path d="M101.271 189.213L94.6077 195.633L95.3202 196.372L101.984 189.953L101.271 189.213Z" fill="#D6919A"/>
<path d="M112.782 172.332L111.98 172.974L116.427 178.53L117.228 177.889L112.782 172.332Z" fill="#D6919A"/>
<path d="M129.576 185.868L121.546 193.156L122.236 193.917L130.267 186.628L129.576 185.868Z" fill="#D6919A"/>
<path d="M137.144 194.836L136.301 195.423L140.254 201.105L141.097 200.518L137.144 194.836Z" fill="#D6919A"/>
<path d="M133.908 132.598L126.39 138.653L127.034 139.453L134.552 133.398L133.908 132.598Z" fill="#D6919A"/>
<path d="M140.261 144.417L139.449 145.045L146.235 153.817L147.047 153.188L140.261 144.417Z" fill="#D6919A"/>
<path d="M114.141 146.503L113.33 147.134L117.406 152.368L118.216 151.737L114.141 146.503Z" fill="#D6919A"/>
<path d="M151.606 89.2217L146.314 93.6826L146.976 94.4678L152.268 90.0069L151.606 89.2217Z" fill="#D6919A"/>
<path d="M157.375 101.695L156.53 102.278L162.246 110.562L163.091 109.979L157.375 101.695Z" fill="#D6919A"/>
<path d="M158.371 118.887L151.31 124.657L151.96 125.452L159.02 119.682L158.371 118.887Z" fill="#D6919A"/>
<path d="M173.934 118.89L165.779 125.803L166.443 126.586L174.598 119.674L173.934 118.89Z" fill="#D6919A"/>
<path d="M160.207 134.16L159.391 134.783L165.708 143.061L166.525 142.437L160.207 134.16Z" fill="#D6919A"/>
<path d="M179.863 134.942L172.828 140.872L173.489 141.657L180.525 135.727L179.863 134.942Z" fill="#D6919A"/>
<path d="M168.259 151.688L160.722 158.185L161.392 158.962L168.93 152.466L168.259 151.688Z" fill="#D6919A"/>
<path d="M179.026 156.935L178.154 157.477L183.22 165.632L184.093 165.09L179.026 156.935Z" fill="#D6919A"/>
<path d="M184.075 143.43L183.244 144.034L189.296 152.357L190.126 151.753L184.075 143.43Z" fill="#D6919A"/>
<path d="M198.653 162.362L190.252 168.789L190.876 169.605L199.277 163.178L198.653 162.362Z" fill="#D6919A"/>
<path d="M200.383 180.029L192.105 186.938L192.763 187.727L201.041 180.817L200.383 180.029Z" fill="#D6919A"/>
<path d="M173.328 168.789L168.264 172.945L168.915 173.739L173.98 169.583L173.328 168.789Z" fill="#D6919A"/>
<path d="M197.568 191.519L196.695 192.062L200.28 197.826L201.152 197.284L197.568 191.519Z" fill="#D6919A"/>
<path d="M24.6342 28.8011L25.0245 61.3957L40.5824 69.8164C42.9032 71.0693 45.717 69.3954 45.717 66.7562V35.2913C45.717 33.9357 44.9262 32.7034 43.6939 32.1283L29.5635 25.5971C27.2426 24.5291 24.6034 26.2441 24.6342 28.8011Z" fill="#322159"/>
<path d="M49.4139 65.9349C49.1263 65.9349 48.9004 65.7089 48.9004 65.4214V32.8885C48.9004 32.0464 48.428 31.2762 47.6784 30.886L33.0755 23.3792C32.8188 23.2457 32.7264 22.9376 32.8496 22.6911C32.9831 22.4344 33.2912 22.342 33.5376 22.4652L48.1405 29.972C49.2393 30.5368 49.9171 31.6562 49.9171 32.8885V65.4214C49.9273 65.7089 49.7014 65.9349 49.4139 65.9349Z" fill="#8974B5"/>
<path d="M47.5655 27.1168C47.5347 27.1168 47.5039 27.1168 47.473 27.1065C47.1958 27.0552 47.0109 26.7882 47.0623 26.5109L48.4384 19.1479C48.4897 18.8706 48.7567 18.6857 49.034 18.7371C49.3112 18.7884 49.4961 19.0554 49.4447 19.3327L48.0687 26.6957C48.0173 26.9422 47.8017 27.1168 47.5655 27.1168Z" fill="#8974B5"/>
<path d="M50.7797 29.0478C50.6154 29.0478 50.4614 28.976 50.3587 28.8322C50.1944 28.596 50.2457 28.2777 50.4819 28.1133L56.551 23.79C56.7872 23.6257 57.1056 23.677 57.2699 23.9132C57.4342 24.1494 57.3828 24.4678 57.1466 24.6321L51.0775 28.9554C50.9954 29.017 50.8824 29.0478 50.7797 29.0478Z" fill="#8974B5"/>
<path d="M51.3342 33.5757C51.0775 33.5757 50.8516 33.3806 50.8207 33.1136C50.7899 32.8363 50.9953 32.5796 51.2726 32.5488L59.0978 31.6964C59.375 31.6656 59.6318 31.871 59.6626 32.1483C59.6934 32.4255 59.488 32.6823 59.2107 32.7131L51.3856 33.5654C51.3753 33.5757 51.3547 33.5757 51.3342 33.5757Z" fill="#8974B5"/>
<path d="M103.132 153.202L84.9557 161.284C84.9557 161.284 86.2291 163.8 93.2224 161.284C100.216 158.768 101.653 158.768 101.653 158.768C101.653 158.768 93.9413 167.209 93.2224 169.181C92.5036 171.153 100.575 167.024 104.888 165.946C109.201 164.868 110.28 166.305 107.579 167.743C104.888 169.181 98.0592 172.231 100.935 172.056C103.81 171.882 112.251 168.287 114.223 168.821C116.195 169.355 127.327 172.056 132.892 170.793C132.892 170.793 164.676 209.036 187.124 207.608C192.516 205.637 199.694 198.992 190 188.22C180.305 177.448 132.184 153.746 126.433 152.483C120.682 151.23 103.132 153.202 103.132 153.202Z" fill="#C5503B"/>
<path d="M40.7159 40.9904C42.2665 40.3845 34.39 28.3079 25.7639 37.6015C25.7639 37.6015 16.7372 41.2368 16.3367 51.8758C15.9362 62.5147 14.5909 74.7659 14.5909 74.7659C14.5909 74.7659 -11.5237 135.365 7.98782 152.062C27.4994 168.76 28.9473 90.6935 28.9473 76.3371C28.9473 76.3371 32.521 70.0215 32.3772 65.4209L27.3864 62.3401C27.3864 62.3401 25.7228 61.6213 25.6509 58.8486C25.579 56.0759 25.6509 53.0156 25.6509 53.0156C25.6509 53.0156 27.982 53.3032 29.0089 54.6895C30.0256 56.0759 34.8419 56.271 36.3822 55.4494C37.9124 54.6176 40.1819 49.8014 39.0831 47.8297C37.9842 45.858 32.367 41.7708 28.8652 42.4281C28.8652 42.4281 29.8099 39.2138 31.0525 38.6284C32.2951 38.0431 34.9959 37.5296 36.2385 39.2138C37.4811 40.8979 39.0009 41.6681 40.7159 40.9904Z" fill="#C5503B"/>
<path d="M94.7936 43.2185C96.0187 43.2185 97.0118 41.7978 97.0118 40.0453C97.0118 38.2928 96.0187 36.8721 94.7936 36.8721C93.5686 36.8721 92.5755 38.2928 92.5755 40.0453C92.5755 41.7978 93.5686 43.2185 94.7936 43.2185Z" fill="#322159"/>
<path d="M111.348 45.9606C112.573 45.9606 113.566 44.54 113.566 42.7874C113.566 41.0349 112.573 39.6143 111.348 39.6143C110.123 39.6143 109.13 41.0349 109.13 42.7874C109.13 44.54 110.123 45.9606 111.348 45.9606Z" fill="#322159"/>
<g opacity="0.5">
<path opacity="0.5" d="M91.2918 53.2006C95.3413 53.2006 98.6241 49.9178 98.6241 45.8684C98.6241 41.8189 95.3413 38.5361 91.2918 38.5361C87.2423 38.5361 83.9596 41.8189 83.9596 45.8684C83.9596 49.9178 87.2423 53.2006 91.2918 53.2006Z" fill="white"/>
</g>
<path d="M91.3021 53.7138C86.9788 53.7138 83.4564 50.1915 83.4564 45.8682C83.4564 41.5448 86.9788 38.0225 91.3021 38.0225C95.6255 38.0225 99.1478 41.5448 99.1478 45.8682C99.1478 50.1915 95.6255 53.7138 91.3021 53.7138ZM91.3021 39.0494C87.5436 39.0494 84.4833 42.1096 84.4833 45.8682C84.4833 49.6267 87.5436 52.6869 91.3021 52.6869C95.0607 52.6869 98.1209 49.6267 98.1209 45.8682C98.1209 42.1096 95.0607 39.0494 91.3021 39.0494Z" fill="#322159"/>
<g opacity="0.5">
<path opacity="0.5" d="M110.464 56.3734C114.514 56.3734 117.797 53.0907 117.797 49.0412C117.797 44.9917 114.514 41.709 110.464 41.709C106.415 41.709 103.132 44.9917 103.132 49.0412C103.132 53.0907 106.415 56.3734 110.464 56.3734Z" fill="white"/>
</g>
<path d="M110.464 56.8867C106.141 56.8867 102.619 53.3644 102.619 49.041C102.619 44.7177 106.141 41.1953 110.464 41.1953C114.788 41.1953 118.31 44.7177 118.31 49.041C118.31 53.3644 114.788 56.8867 110.464 56.8867ZM110.464 42.2222C106.706 42.2222 103.646 45.2825 103.646 49.041C103.646 52.7995 106.706 55.8598 110.464 55.8598C114.223 55.8598 117.283 52.7995 117.283 49.041C117.283 45.2825 114.223 42.2222 110.464 42.2222Z" fill="#322159"/>
<path d="M117.797 45.9913C117.581 45.9913 117.386 45.8578 117.314 45.6422C117.222 45.3752 117.365 45.0774 117.632 44.985L131.65 40.1482C131.917 40.0557 132.215 40.1995 132.307 40.4665C132.4 40.7335 132.256 41.0313 131.989 41.1237L117.971 45.9605C117.91 45.9811 117.848 45.9913 117.797 45.9913Z" fill="#322159"/>
<path d="M121.545 39.4298C121.206 39.4298 120.877 39.2655 120.682 38.9575C117.232 33.6277 111.029 36.0205 110.773 36.1232C110.249 36.3285 109.653 36.0821 109.438 35.5481C109.222 35.0243 109.479 34.4287 110.002 34.2131C112.765 33.0937 118.906 32.416 122.408 37.8381C122.716 38.3105 122.582 38.9472 122.1 39.2553C121.925 39.3785 121.73 39.4298 121.545 39.4298Z" fill="#833823"/>
<path d="M90.4703 35.5172C90.2649 35.5172 90.0698 35.4556 89.8849 35.3324C89.4228 35.014 89.2996 34.3671 89.6282 33.905C89.7001 33.792 91.528 31.2042 94.6704 30.701C96.7345 30.3723 98.85 30.9988 100.935 32.5905C101.386 32.9294 101.479 33.5764 101.13 34.0282C100.791 34.48 100.144 34.5725 99.692 34.2233C98.0695 32.991 96.488 32.4878 94.9887 32.724C92.7295 33.0834 91.3226 35.0551 91.3021 35.0757C91.1172 35.3529 90.7989 35.5172 90.4703 35.5172Z" fill="#833823"/>
<path d="M101.284 40.9912C101.284 40.9912 99.1889 47.0192 94.9888 48.1386C90.7886 49.2579 98.1414 52.9754 98.1414 52.9754" fill="#C6503B"/>
<path d="M98.1311 53.4986C98.049 53.4986 97.9771 53.478 97.8949 53.4472C96.7448 52.8619 92.9965 50.8286 93.1813 49.0828C93.2532 48.4153 93.8078 47.9327 94.8552 47.6554C98.737 46.6182 100.781 40.888 100.801 40.8366C100.894 40.5696 101.191 40.4258 101.458 40.5183C101.725 40.6107 101.869 40.9085 101.777 41.1755C101.684 41.4322 99.538 47.4705 95.1222 48.6515C94.578 48.7953 94.2288 49.0007 94.2083 49.1958C94.1364 49.8941 96.3032 51.4858 98.3673 52.5333C98.624 52.6565 98.7165 52.9748 98.5932 53.2213C98.5008 53.3959 98.3262 53.4986 98.1311 53.4986Z" fill="#833823"/>
<path d="M93.5408 55.4492C93.5408 55.4492 98.1517 59.8445 106.788 56.6405C106.788 56.6405 106.85 65.318 99.0349 65.4104C91.22 65.5131 93.5408 55.4492 93.5408 55.4492Z" fill="white"/>
<path d="M98.7263 43.3054L98.5405 44.3154L103.035 45.1421L103.221 44.1321L98.7263 43.3054Z" fill="#322159"/>
<path d="M133.642 74.0475C126.669 74.0475 120.99 68.3686 120.99 61.3958C120.99 56.5385 123.691 52.1946 128.056 50.038C128.436 49.8532 128.898 50.0072 129.083 50.3872C129.267 50.7672 129.113 51.2293 128.733 51.4141C124.903 53.3037 122.531 57.1238 122.531 61.3855C122.531 67.5163 127.522 72.4969 133.642 72.4969C139.763 72.4969 144.753 67.5163 144.753 61.3855C144.753 57.4627 142.648 53.7966 139.27 51.8043C138.9 51.5887 138.777 51.1163 138.992 50.7466C139.208 50.3769 139.68 50.2537 140.05 50.4693C143.901 52.7389 146.294 56.9184 146.294 61.3753C146.294 68.3686 140.625 74.0475 133.642 74.0475Z" fill="white"/>
</svg>
