<svg width="231" height="196" viewBox="0 0 231 196" fill="none" xmlns="http://www.w3.org/2000/svg">
<path d="M73.1428 76.8662H24.2856V78.5805H73.1428V76.8662Z" fill="#AA7127"/>
<path d="M70.5715 106.937H21.7144V104.509L70.5715 105.223V106.937Z" fill="#AA7127"/>
<path d="M72.0714 145.508C72.0714 145.508 61.7143 144.794 60.9286 147.651C60.0714 150.58 60.9286 160.365 60.9286 160.365H66.1428L72.0714 145.508Z" fill="#F9E6CF"/>
<path d="M56.1428 153.437C56.0714 149.366 58.8571 148.223 60.8571 147.723V158.366C60.8571 158.294 56.2143 158.866 56.1428 153.437Z" fill="#C6292C"/>
<path d="M86.9286 195.509C97.3825 195.509 105.857 187.034 105.857 176.58C105.857 166.126 97.3825 157.651 86.9286 157.651C76.4746 157.651 68 166.126 68 176.58C68 187.034 76.4746 195.509 86.9286 195.509Z" fill="#5E2E1E"/>
<path d="M86.9286 188.795C93.6744 188.795 99.1429 183.326 99.1429 176.58C99.1429 169.835 93.6744 164.366 86.9286 164.366C80.1829 164.366 74.7144 169.835 74.7144 176.58C74.7144 183.326 80.1829 188.795 86.9286 188.795Z" fill="#F9E6CF"/>
<path d="M207.357 195.509C217.811 195.509 226.286 187.034 226.286 176.58C226.286 166.126 217.811 157.651 207.357 157.651C196.903 157.651 188.429 166.126 188.429 176.58C188.429 187.034 196.903 195.509 207.357 195.509Z" fill="#5E2E1E"/>
<path d="M207.357 188.795C214.103 188.795 219.571 183.326 219.571 176.58C219.571 169.835 214.103 164.366 207.357 164.366C200.611 164.366 195.143 169.835 195.143 176.58C195.143 183.326 200.611 188.795 207.357 188.795Z" fill="#F9E6CF"/>
<path d="M87.5715 180.794C89.8989 180.794 91.7857 178.907 91.7857 176.58C91.7857 174.252 89.8989 172.365 87.5715 172.365C85.244 172.365 83.3572 174.252 83.3572 176.58C83.3572 178.907 85.244 180.794 87.5715 180.794Z" fill="#5E2E1E"/>
<path d="M207.071 180.794C209.399 180.794 211.286 178.907 211.286 176.58C211.286 174.252 209.399 172.365 207.071 172.365C204.744 172.365 202.857 174.252 202.857 176.58C202.857 178.907 204.744 180.794 207.071 180.794Z" fill="#5E2E1E"/>
<path d="M20.3572 133.08V136.866C20.3572 136.866 19.3572 138.509 22.2858 138.509C25.2143 138.509 60.5715 138.509 60.5715 138.509L73.5 145.08L76.2858 142.437L69.2143 138.009L81.7143 137.866V110.58H72.4286H20.4286V133.08H20.3572Z" fill="#9A9B9C"/>
<path d="M231 163.08L184.143 178.437L187.429 173.294L204.643 146.223C204.643 146.223 226.643 147.58 228.571 160.151C228.571 160.151 228.786 160.08 229.071 160.008C229.429 159.937 230 160.008 230.286 160.58C230.857 161.58 231 163.08 231 163.08Z" fill="#FA2628"/>
<path d="M204.786 80.8656V101.723L194.357 86.2227C194.357 86.2227 196.714 79.437 204.786 80.8656Z" fill="#C82D30"/>
<path d="M210.071 90.5794C210.428 86.2937 208.143 83.2937 206.143 82.9365V98.1508C206.143 98.0794 209.5 97.7937 210.071 90.5794Z" fill="#FFC445"/>
<path d="M231 163.081L184.143 178.438L187.429 173.295L229.071 160.009C229.429 159.938 230 160.009 230.286 160.581C230.857 161.581 231 163.081 231 163.081Z" fill="#FEC844"/>
<path d="M193.286 171.008L200.643 168.722C200.643 168.722 206 152.222 214.214 148.079C214.214 148.079 205 145.794 202.5 146.365L193.286 171.008Z" fill="#C82D30"/>
<path d="M207 147.008C207 147.008 196.429 175.723 180.929 180.866H113.5C113.5 180.866 111.286 181.08 111.286 177.866L60.7857 176.937H57.9285C57.9285 176.937 56.1428 176.651 57.9285 171.651C58.2857 170.58 58.7857 168.794 59.5 166.437C62.2143 157.723 68.5714 142.151 87.1428 134.794L84.0714 129.937L132.071 131.58C132.071 131.58 119.714 143.651 120.214 153.437C120.786 163.151 135.071 169.294 135.071 169.294L172.5 168.651H173.786C173.786 168.651 180.286 162.794 180.571 158.294C180.857 153.866 180.571 117.794 180.571 117.794C180.571 117.794 178.143 103.08 173.429 92.2227C171.714 88.2227 169.643 84.7227 167.357 82.6513L165.857 82.3656C165.857 82.3656 166.214 86.5084 162.357 86.5084C158.5 86.5084 157.714 82.7941 159.5 81.0084C161.286 79.2227 165.714 71.7941 165.714 71.7941L164.786 67.2227C164.786 67.2227 164 69.0799 162.857 69.0084C161.714 68.937 158.643 68.937 159.071 61.7227C159 58.0084 162.071 56.2227 162.071 56.2227C162.071 56.2227 165.857 55.937 165.929 61.3656C166 66.7941 168 72.7941 168 72.7941L171.714 72.7227C171.714 72.7227 169 68.1513 169 64.3656C169 60.5799 168.571 55.1513 171.143 53.1513C173.714 51.0799 175.357 56.7227 175.357 56.7227C175.357 56.7227 177.071 65.7941 171.214 64.3656C171.214 64.3656 170.786 66.937 172.5 69.7941C174.214 72.7227 180.143 77.8656 180.143 77.8656C180.143 77.8656 185.214 73.437 189.929 78.2941C194.643 83.1513 196.357 85.7941 196.357 85.7941C196.357 85.7941 205.929 99.2227 208.286 110.651C210.643 121.937 207 147.008 207 147.008Z" fill="#FA2628"/>
<path d="M179.143 169.009C170.929 176.223 147.5 177.795 147.5 177.795H111.286L60.7857 176.866H57.9285C57.9285 176.866 56.1428 176.581 57.9285 171.581C58.2857 170.509 58.7857 168.723 59.5 166.366C63.0714 159.866 67.5714 152.438 71.2143 148.795C78.5 141.438 86.1428 139.295 89.3571 138.866C92.5714 138.438 109.857 135.652 114.286 147.652C118.643 159.652 116.929 169.366 116.929 169.366C116.929 169.366 116.5 171.438 119.429 171.581C122.357 171.723 166.143 171.152 166.143 171.152C166.143 171.152 170.5 170.509 172.571 168.652H173.857C173.857 168.652 180.357 162.795 180.643 158.295C180.929 153.866 180.643 117.795 180.643 117.795C180.643 117.795 178.214 103.081 173.5 92.2235C174.286 88.5092 176 82.0806 178.714 79.7949C178.643 80.1521 176.571 87.0806 178 92.9378C179.5 98.9378 183.286 122.652 184 127.366C184.714 132.009 187.357 161.866 179.143 169.009Z" fill="#C82D30"/>
<path d="M60.8569 176.937C60.8569 176.937 60.9998 155.009 84.2855 145.08C107.571 135.151 111.785 154.223 111.785 154.223L111.286 177.866L60.8569 176.937Z" fill="#FA2628"/>
<path d="M68.3572 164.365C68.3572 164.365 74.5 144.794 98.3572 145.58C102.929 145.58 109.786 154.794 108.714 157.651C102.643 164.151 76.3572 158.723 68.3572 164.365Z" fill="#F15A62"/>
<path d="M86.5 108.864C86.5 108.864 79 107.864 79.1429 114.578C79.2857 121.221 79.1429 133.65 79.1429 133.65C79.1429 133.65 116.429 129.507 127.429 134.507C138.429 139.507 135.929 123.793 135.929 123.793C135.929 123.793 135.786 119.793 132.5 118.936C129.214 118.078 86.5 108.864 86.5 108.864Z" fill="#C82D30"/>
<path d="M28.1428 36.2227L20.3571 38.4369L20.9285 76.8655H28.1428V36.2227Z" fill="#EFAB40"/>
<path d="M77.4287 38.2227L28.1429 36.2227V76.8655H77.4287V38.2227Z" fill="#FEC867"/>
<path d="M74.6428 78.5088V105.223L50.6428 104.937L15.7856 104.437V78.5088H74.6428Z" fill="#FEC867"/>
<path d="M74.6428 106.794H19.1428V135.865H74.6428V106.794Z" fill="#FEC867"/>
<path d="M50.6428 78.5088V104.937L15.7856 104.437V78.5088H50.6428Z" fill="#EFAA3A"/>
<path d="M35.1428 106.794H19.1428V135.865H35.1428V106.794Z" fill="#EFAA3A"/>
<path d="M39.2143 36.6504L38.1428 139.793" stroke="#C82D30" stroke-width="2.5542" stroke-miterlimit="10"/>
<path d="M69.9285 36.6504L68.6428 139.15" stroke="#C82D30" stroke-width="2.5542" stroke-miterlimit="10"/>
<path d="M1 45.5067C1 45.5067 10.4286 56.721 24.2857 47.6495C38.1429 38.5781 49.9286 37.0781 49.9286 37.0781C49.9286 37.0781 35.6429 35.8638 33.2857 34.5067C30.9286 33.1495 16.8571 26.5067 11.7143 36.221" stroke="#C82D30" stroke-width="2.5542" stroke-miterlimit="10"/>
<path d="M64.4285 26.2227C60.7856 24.1512 55.9285 25.8655 54.2856 34.3655C52.7142 42.937 71.7856 30.3655 64.4285 26.2227Z" stroke="#C82D30" stroke-width="2.5542" stroke-miterlimit="10"/>
<path d="M153.929 161.294C153.929 161.294 150.5 162.294 150.286 165.865C150.071 169.437 150.286 168.508 150.286 168.508L171.571 168.579C171.571 168.579 172.714 166.651 170.286 165.865C167.857 165.079 163.071 164.937 161.143 162.651C159.214 160.294 153.929 161.294 153.929 161.294Z" fill="#FECA57"/>
<path d="M152.929 154.223V163.437C152.929 163.437 156.357 167.223 161.143 162.651C161.143 162.651 159.714 159.794 160.357 155.151L152.929 154.223Z" fill="#FFA072"/>
<path d="M169.857 146.437C167.214 154.08 168.643 155.366 162.214 156.223C155.786 157.009 152.786 156.08 152.786 156.08C152.786 156.08 150.071 156.723 148.643 155.366C147.857 154.652 147.5 153.366 148.071 151.08C149.714 144.58 152.786 120.366 152.786 120.366L144.929 120.58L121.5 121.223C121.5 121.223 83.6428 125.223 81.7142 101.723C81.7142 101.652 81.7142 101.58 81.7142 101.509C102.143 99.4372 143.5 91.0801 143.5 91.0801C143.5 91.0801 146.929 91.3658 151.571 92.2229C160.286 93.8658 173.214 97.3658 174.643 104.294C176.857 114.723 172.5 138.794 169.857 146.437Z" fill="#FEC648"/>
<path d="M151.5 92.0794C148.143 92.8651 144.071 93.7937 142.143 94.1508C138.643 94.7937 131 99.7222 115.929 105.222C103.643 109.722 87.2857 103.865 81.7142 101.579C81.7142 101.508 81.7142 101.437 81.7142 101.365C102.143 99.2937 143.5 90.9365 143.5 90.9365C143.5 90.9365 146.857 91.2937 151.5 92.0794Z" fill="#FFAB01"/>
<path d="M108.643 100.793C108.643 100.793 108.286 106.436 126.071 106.936C143.857 107.436 164.571 105.864 164.714 110.579C164.857 115.293 163.286 124.079 162.357 131.007C161.428 137.936 157.786 156.579 157.786 156.579" stroke="white" stroke-width="1.2771" stroke-miterlimit="10"/>
<path d="M144.857 119.938C144.857 119.938 156.071 119.224 157.429 118.295C158.786 117.367 161.571 116.938 159.143 123.009C156.714 129.081 149.571 151.009 149.571 152.152C149.571 152.724 149.143 154.081 148.643 155.367C147.857 154.652 147.5 153.367 148.071 151.081C149.714 144.581 152.786 120.367 152.786 120.367" fill="#FFAB01"/>
<path d="M81.7143 101.366C81.7143 101.366 124.714 103.294 143.5 90.9369L142.286 89.2227L80.5714 95.3655L81.7143 101.366Z" fill="white"/>
<path d="M134.429 35.8654C134.429 35.8654 125.143 18.3654 109.5 31.0082C93.8571 43.6511 110.357 44.2225 110.357 44.2225C110.357 44.2225 74.5 74.0082 81 98.0082C81 98.0082 128.429 99.6511 142.214 89.2225C142.214 89.2225 139.571 48.5082 144.857 42.5082L134.429 35.8654Z" fill="#FEC648"/>
<path d="M114.143 48.8662C114.143 48.8662 103.571 71.5805 111.714 86.3662C119.857 101.152 142.143 87.5805 142.143 87.5805L142 84.1519C142 84.1519 118.214 91.7233 115.786 81.9376C111.286 72.4376 114.143 48.8662 114.143 48.8662Z" fill="#FFAB01"/>
<path d="M132.429 45.9375C132.429 45.9375 138.357 55.6518 135.429 69.4375L140.643 69.8661C140.643 69.8661 139.571 65.6518 138.786 65.5804C137.929 65.4375 140.286 50.2946 132.429 45.9375Z" fill="#FFAB01"/>
<path d="M112.571 42.9374C112.571 42.9374 118 39.7231 121.286 39.6516C124.571 39.5802 132 37.1517 132.429 36.3659C132.857 35.5802 128.857 40.4374 121.643 41.2231C121.643 41.2231 113.357 48.1516 107.214 47.1516C107.214 47.0802 110.214 44.2231 112.571 42.9374Z" fill="#FFAA00"/>
<path d="M148.071 79.2943C148.071 79.2943 151.857 78.8657 153.643 79.2943C155.429 79.7229 159.429 82.08 163.857 79.08C168.286 76.08 171.286 75.7943 171.214 77.7229C171.143 79.6514 170.786 81.58 170.786 81.58C170.786 81.58 174.357 80.7229 173.714 75.7943C173 70.8657 167.929 72.2229 166 72.58C164.143 72.9372 148.929 73.1514 148.929 73.1514L148.071 79.2943Z" fill="#FFA072"/>
<path d="M149.643 73.1515H147.286C147.286 73.1515 148.071 70.0086 146.5 69.8657C144.928 69.6515 140.571 69.8657 140.571 69.8657L139.857 84.2943C139.857 84.2943 144.714 84.7943 146.143 81.5086L149.643 80.1515V73.1515V73.1515Z" fill="#FEC648"/>
<path d="M113.571 177.864L59.2858 176.936V175.007C59.2858 174.079 60.0715 173.364 60.9286 173.364H111.5C112.643 173.364 113.571 174.293 113.571 175.436V177.864Z" fill="#FEC648"/>
<path d="M151.071 34.5082C151.071 34.5082 144.714 39.7939 144.928 42.5082C144.928 42.5082 144.428 42.5082 142.714 41.151C140.857 39.5796 137.286 38.7225 133.428 36.0082C133.428 36.0082 139 31.9368 139.5 27.7225C139.5 27.5082 139.571 27.3653 139.643 27.2225C141 24.4368 151.071 34.5082 151.071 34.5082Z" fill="#FFA372"/>
<path d="M151.071 34.5082C151.071 34.5082 144.714 39.7939 144.929 42.5082C144.929 42.5082 144.929 42.5082 142.714 41.151C142.714 41.151 140.786 30.7225 139.643 27.2225C141 24.4368 151.071 34.5082 151.071 34.5082Z" fill="#F37D4E"/>
<path d="M161.214 13.1517C161.214 13.1517 162.357 19.7946 161.5 22.866C160.714 25.9374 162.714 27.1517 162.714 27.1517C162.714 27.1517 161.786 28.1517 159.928 27.5089C159.928 27.5089 158.928 28.7231 159.428 29.5089C159.928 30.2946 157.714 30.1517 156.5 29.5803C155.286 29.0089 155 29.9374 155.571 30.5088C156.143 31.0803 158.428 31.7946 158.071 32.366C157.643 32.9374 156.928 32.4374 157 32.9374C157.071 33.4374 157.928 35.7231 155.928 35.7231C153.928 35.7231 143.5 31.9374 142.571 31.2946C141.643 30.6517 139.643 30.0088 139.5 27.6517C139.357 25.2946 139.643 11.9374 147.071 10.9374C154.357 9.866 161.214 13.1517 161.214 13.1517Z" fill="#FFA072"/>
<path d="M156.214 19.9364C156.214 19.9364 159.071 18.6507 159.714 20.7221" stroke="#5E2E1E" stroke-width="0.6465" stroke-miterlimit="10" stroke-linecap="round"/>
<path d="M158.929 22.3192C159.096 21.8341 158.988 21.3579 158.69 21.2555C158.391 21.1532 158.014 21.4636 157.848 21.9487C157.682 22.4339 157.789 22.9101 158.088 23.0124C158.386 23.1147 158.763 22.8044 158.929 22.3192Z" fill="#5E2E1E"/>
<path d="M136.571 3.58C136.571 3.58 135.643 6.79429 137.214 7.93714C137.214 7.93714 132.143 10.6514 134.357 15.08C136.571 19.4371 137.857 23.7229 135.643 25.3657C133.5 27.0086 139.857 30.08 142.071 29.4371C144.286 28.7943 144.643 24.4371 144.143 23.8657C143.643 23.2943 141.5 19.8657 145.214 17.7229C148.929 15.6514 150.643 20.3657 150.286 22.2229C149.929 24.08 152.929 23.08 152.929 23.08C152.929 23.08 152.786 16.4371 155.357 15.5086C158 14.58 166.5 14.7229 165.286 8.22285C165.286 8.22285 160.5 10.4371 160.071 7.65142C159.643 4.86571 156.5 4.65143 156.5 4.65143C156.5 4.65143 155.071 -1.13428 149.714 2.65143C149.714 2.65143 146.429 -1.49143 143.571 0.58C140.786 2.58 138.214 5.93714 136.571 3.58Z" fill="#5E2E1E"/>
</svg>
