<svg width="240" height="48" viewBox="0 0 240 48" fill="none" xmlns="http://www.w3.org/2000/svg">
<path d="M80.786 26.0454V30.5132C78.2274 31.8706 75.5468 32.5493 72.744 32.5493C69.1112 32.5493 66.2157 31.5483 64.0575 29.5464C61.9091 27.5347 60.8348 25.0591 60.8348 22.1196C60.8348 19.1802 61.9677 16.6851 64.2333 14.6343C66.5087 12.5835 69.4774 11.5581 73.1395 11.5581C76.0594 11.5581 78.5302 12.1587 80.5516 13.3599V17.9155C78.0712 16.519 75.7225 15.8208 73.5057 15.8208C71.328 15.8208 69.5458 16.4067 68.1591 17.5786C66.7821 18.7407 66.0936 20.2251 66.0936 22.0317C66.0936 23.8481 66.7723 25.3472 68.1298 26.5288C69.4969 27.7104 71.245 28.3013 73.3739 28.3013C74.4286 28.3013 75.4442 28.1646 76.4208 27.8911C77.3973 27.6079 78.8524 26.9927 80.786 26.0454ZM91.5087 18.1792C93.6766 18.1792 95.5126 18.814 97.0165 20.0835C98.5302 21.353 99.287 23.1206 99.287 25.3862C99.287 27.6616 98.5204 29.4243 96.9872 30.6743C95.454 31.9243 93.6278 32.5493 91.5087 32.5493C89.2137 32.5493 87.3339 31.8853 85.869 30.5571C84.4139 29.2192 83.6864 27.4858 83.6864 25.3569C83.6864 23.189 84.4286 21.4507 85.913 20.1421C87.4071 18.8335 89.2723 18.1792 91.5087 18.1792ZM91.5087 29.9712C93.5887 29.9712 94.6288 28.4038 94.6288 25.269C94.6288 22.271 93.5887 20.772 91.5087 20.772C90.5126 20.772 89.7313 21.1675 89.1649 21.9585C88.6083 22.7495 88.33 23.8823 88.33 25.3569C88.33 28.4331 89.3895 29.9712 91.5087 29.9712ZM109.35 18.1792C111.518 18.1792 113.354 18.814 114.858 20.0835C116.372 21.353 117.129 23.1206 117.129 25.3862C117.129 27.6616 116.362 29.4243 114.829 30.6743C113.296 31.9243 111.47 32.5493 109.35 32.5493C107.056 32.5493 105.176 31.8853 103.711 30.5571C102.256 29.2192 101.528 27.4858 101.528 25.3569C101.528 23.189 102.27 21.4507 103.755 20.1421C105.249 18.8335 107.114 18.1792 109.35 18.1792ZM109.35 29.9712C111.431 29.9712 112.471 28.4038 112.471 25.269C112.471 22.271 111.431 20.772 109.35 20.772C108.354 20.772 107.573 21.1675 107.007 21.9585C106.45 22.7495 106.172 23.8823 106.172 25.3569C106.172 28.4331 107.231 29.9712 109.35 29.9712ZM124.497 11.8218V25.2983H124.556L129.932 18.4575H135.029L129.624 25.2983L135.264 32.2856H129.932L124.556 25.4741H124.497V32.2856H120.146V11.8218H124.497ZM149.194 27.9937V30.7329C147.534 31.9438 145.478 32.5493 143.027 32.5493C140.596 32.5493 138.652 31.8999 137.197 30.6011C135.742 29.2925 135.015 27.564 135.015 25.4155C135.015 23.3062 135.698 21.5728 137.065 20.2153C138.432 18.8579 140.176 18.1792 142.295 18.1792C144.424 18.1792 146.167 18.897 147.524 20.3325C148.891 21.7583 149.531 23.6724 149.443 26.0747H139.512C139.599 27.3247 140.044 28.2866 140.845 28.9604C141.645 29.6343 142.72 29.9712 144.067 29.9712C145.698 29.9712 147.407 29.312 149.194 27.9937ZM139.599 23.7896H145.605C145.371 21.7778 144.37 20.772 142.602 20.772C140.815 20.772 139.814 21.7778 139.599 23.7896ZM156.724 18.4575V22.4126H156.782C158.042 19.5903 159.512 18.1792 161.191 18.1792C161.992 18.1792 162.954 18.5991 164.077 19.439L162.876 23.2915C161.802 22.6079 160.942 22.2661 160.298 22.2661C159.292 22.2661 158.442 22.8911 157.749 24.1411C157.065 25.3813 156.724 26.104 156.724 26.3091V32.2856H152.373V18.4575H156.724ZM180.073 18.4575L170.815 38.9214H166.186L170.244 30.0298L164.839 18.4575H169.482L172.397 25.562L175.517 18.4575H180.073Z" fill="black"/>
<rect width="45.7143" height="45.7143" fill="#FA2628"/>
<path d="M31.3571 11.4287C31.6895 11.4288 32.0104 11.5508 32.2588 11.7717C32.5072 11.9926 32.6659 12.2969 32.7048 12.6271L32.7143 12.7859V34.5001C32.7139 34.846 32.5814 35.1788 32.344 35.4303C32.1065 35.6818 31.782 35.8332 31.4367 35.8534C31.0913 35.8737 30.7513 35.7614 30.4861 35.5393C30.2208 35.3173 30.0503 35.0024 30.0095 34.6589L30 34.5001V27.7144H28.6428C28.3104 27.7144 27.9896 27.5923 27.7412 27.3715C27.4928 27.1506 27.3341 26.8462 27.2952 26.5161L27.2857 26.3573V18.2144C27.2857 15.2151 29.3214 11.4287 31.3571 11.4287ZM23.2143 11.4287C23.5467 11.4288 23.8675 11.5508 24.1159 11.7717C24.3643 11.9926 24.523 12.2969 24.5619 12.6271L24.5714 12.7859V19.5716C24.5712 20.7752 24.1713 21.9446 23.4344 22.8963C22.6974 23.8479 21.6653 24.5278 20.5 24.8291V34.5001C20.4996 34.846 20.3671 35.1788 20.1297 35.4303C19.8922 35.6818 19.5677 35.8332 19.2224 35.8534C18.8771 35.8737 18.537 35.7614 18.2718 35.5393C18.0065 35.3173 17.836 35.0024 17.7952 34.6589L17.7857 34.5001V24.8291C16.6667 24.5398 15.6691 23.9011 14.9381 23.0058C14.2071 22.1106 13.7807 21.0054 13.721 19.8511L13.7143 19.5716V12.7859C13.7146 12.4399 13.8471 12.1072 14.0846 11.8557C14.322 11.6042 14.6466 11.4528 14.9919 11.4325C15.3372 11.4123 15.6772 11.5246 15.9425 11.7466C16.2077 11.9687 16.3782 12.2836 16.419 12.6271L16.4285 12.7859V19.5716C16.4286 20.048 16.554 20.5161 16.7922 20.9287C17.0304 21.3413 17.3731 21.6839 17.7857 21.9221V12.7859C17.7861 12.4399 17.9185 12.1072 18.156 11.8557C18.3934 11.6042 18.718 11.4528 19.0633 11.4325C19.4086 11.4123 19.7486 11.5246 20.0139 11.7466C20.2792 11.9687 20.4496 12.2836 20.4905 12.6271L20.5 12.7859L20.5013 21.9221C20.8801 21.7032 21.2003 21.396 21.4347 21.0267C21.6691 20.6573 21.8108 20.2368 21.8476 19.8009L21.8571 19.5716V12.7859C21.8571 12.4259 22.0001 12.0807 22.2546 11.8262C22.5091 11.5717 22.8543 11.4287 23.2143 11.4287Z" fill="white"/>
</svg>
